<?xml version="1.0" encoding="UTF-8" standalone="no"?>
<!-- Created with Inkscape (http://www.inkscape.org/) -->

<svg
   version="1.1"
   id="svg103"
   width="308.08701"
   height="86.192001"
   viewBox="-10 -2 308.087 86.191999"
   sodipodi:docname="logo_gradient_v2.svg"
   inkscape:version="1.2.2 (b0a8486541, 2022-12-01)"
   inkscape:export-filename="logo_gradient_v2.png"
   inkscape:export-xdpi="96"
   inkscape:export-ydpi="96"
   xmlns:inkscape="http://www.inkscape.org/namespaces/inkscape"
   xmlns:sodipodi="http://sodipodi.sourceforge.net/DTD/sodipodi-0.dtd"
   xmlns:xlink="http://www.w3.org/1999/xlink"
   xmlns="http://www.w3.org/2000/svg"
   xmlns:svg="http://www.w3.org/2000/svg"
   xmlns:rdf="http://www.w3.org/1999/02/22-rdf-syntax-ns#"
   xmlns:cc="http://creativecommons.org/ns#"
   xmlns:dc="http://purl.org/dc/elements/1.1/">
  <defs
     id="defs107">
    <linearGradient
       id="linearGradient5925">
      <stop
         style="stop-color:#cab82c;stop-opacity:1;"
         offset="0"
         id="stop7381" />
      <stop
         style="stop-color:#dd4227;stop-opacity:1;"
         offset="0.21913578"
         id="stop7401" />
      <stop
         style="stop-color:#7e4eba;stop-opacity:1;"
         offset="0.6574074"
         id="stop7403" />
      <stop
         style="stop-color:#9dfade;stop-opacity:1;"
         offset="0.83641976"
         id="stop16119" />
      <stop
         style="stop-color:#75e56e;stop-opacity:1;"
         offset="1"
         id="stop7405" />
    </linearGradient>
    <linearGradient
       id="linearGradient6024"
       inkscape:swatch="solid">
      <stop
         style="stop-color:#000000;stop-opacity:1;"
         offset="0"
         id="stop6022" />
    </linearGradient>
    <linearGradient
       id="linearGradient6018"
       inkscape:swatch="solid">
      <stop
         style="stop-color:#657d59;stop-opacity:1;"
         offset="0"
         id="stop6016" />
    </linearGradient>
    <linearGradient
       id="linearGradient6012"
       inkscape:swatch="solid">
      <stop
         style="stop-color:#657d59;stop-opacity:1;"
         offset="0"
         id="stop6010" />
    </linearGradient>
    <linearGradient
       inkscape:collect="always"
       xlink:href="#linearGradient5925"
       id="linearGradient5927"
       x1="24.247601"
       y1="57.954681"
       x2="322.33643"
       y2="57.954681"
       gradientUnits="userSpaceOnUse" />
  </defs>
  <sodipodi:namedview
     id="namedview105"
     pagecolor="#ffffff"
     bordercolor="#000000"
     borderopacity="0.25"
     inkscape:showpageshadow="2"
     inkscape:pageopacity="0.0"
     inkscape:pagecheckerboard="true"
     inkscape:deskcolor="#d1d1d1"
     showgrid="false"
     inkscape:zoom="2.9410753"
     inkscape:cx="156.74539"
     inkscape:cy="95.713292"
     inkscape:window-width="1440"
     inkscape:window-height="902"
     inkscape:window-x="0"
     inkscape:window-y="0"
     inkscape:window-maximized="0"
     inkscape:current-layer="g109" />
  <g
     inkscape:groupmode="layer"
     inkscape:label="Image"
     id="g109"
     transform="translate(-26.266113,-16.83871)">
    <path
       id="path28940"
       style="fill:url(#linearGradient5927);fill-opacity:1;fill-rule:nonzero;stroke:#010201;stroke-width:1.004;stroke-dasharray:none;stroke-opacity:1;paint-order:stroke fill markers"
       d="m 275.64982,95.020738 c 0.51304,-0.499684 0.61271,-1.405459 0.60339,-2.058889 -0.11307,-7.934851 0.0264,-13.69505 -0.0996,-23.401904 -0.006,-0.49942 7.3e-4,-1.07231 0.35611,-1.396819 0.41033,-0.374688 0.75857,-0.264202 1.64777,-0.267286 6.7854,-0.02353 10.39161,0.107361 21.0623,-0.04049 12.51908,-0.173461 22.80644,-13.072983 22.6119,-24.060855 -0.19441,-10.980371 -8.52221,-22.760854 -23.43354,-23.234703 -5.39536,-0.171452 -30.94269,-0.101952 -33.68489,-0.102567 -0.522,-1.17e-4 -1.35169,0.148129 -1.82487,0.574568 -0.56654,0.51056 -0.91598,1.245007 -0.90616,2.097697 0.26416,22.939877 0.0345,48.324033 0.1339,70.083944 0.003,0.610007 0.29807,1.183484 0.71891,1.582789 0.42811,0.406206 1.05075,0.649785 1.64942,0.64877 1.66795,-0.0028 6.71946,0.04836 9.57123,2.6e-4 0.57565,-0.0097 1.20069,-0.04138 1.59406,-0.424515 z m 3.11688,-62.449653 c 5.42216,0 11.5747,-0.1572 17.03981,0.113557 6.50714,0.322385 11.48651,5.79312 11.66441,11.16291 0.17692,5.340583 -5.05939,11.805874 -10.84088,11.840886 -6.13812,0.03717 -12.27815,0.01504 -18.44779,0.01529 -0.57774,2.3e-5 -1.18788,0.08905 -1.6106,-0.251315 -0.29452,-0.237132 -0.4137,-0.572998 -0.40769,-1.056668 0.0773,-6.224499 0.0378,-12.69074 0.006,-19.366999 -0.003,-0.71561 -0.12676,-1.609855 0.38618,-2.1092 0.5336,-0.519459 1.23767,-0.340264 2.21012,-0.348453 z M 155.96828,24.720912 c 6.85797,22.96905 12.88672,43.913635 19.44683,65.835742 0.51442,1.719052 0.75,3.672591 2.03507,4.473751 0.82928,0.517001 1.47438,0.455571 2.24787,0.440409 3.39558,-0.07538 6.75832,0.0062 9.87663,-0.03286 1.27672,-0.01737 1.60075,-0.254245 2.06401,-0.707937 0.56424,-0.552594 1.18608,-2.787811 1.18608,-2.787811 1.14716,-4.433932 1.75128,-6.366271 6.43333,-23.653847 2.80548,-10.358696 3.7331,-13.749107 5.45103,-20.67007 0.18339,-0.738807 0.27596,-2.046965 1.05159,-2.077799 0.63213,-0.02513 0.70699,0.443902 1.05664,1.941035 4.46626,16.633583 11.54403,42.909467 12.40093,45.819427 0.39796,1.771862 1.30321,2.150367 3.21749,2.156853 4.3119,0.01461 4.98875,-0.0359 10.05651,0.0086 1.79404,0.146879 2.84152,-1.672212 3.04895,-2.332631 0.12138,-0.386433 4.75106,-16.693677 10.02095,-34.767496 3.54054,-12.142796 7.59016,-24.774661 10.07048,-34.043273 0.67418,-2.632326 -0.64554,-3.846765 -2.14134,-3.842559 -1.06287,0.003 -2.88171,0.01 -4.63445,0.02834 -1.93526,0.02027 -3.51982,-0.02023 -4.96323,-0.02605 -1.41592,-0.0057 -2.41857,1.435164 -2.73263,2.703945 -3.11811,12.59711 -8.90992,31.619006 -12.83225,47.220937 -0.30531,1.214433 -0.25051,2.307 -1.26614,2.268733 -0.69679,-0.02625 -0.76552,-0.758889 -1.0001,-1.718816 -3.842,-15.72197 -10.71392,-38.269551 -12.98427,-47.514421 -0.24236,-0.986873 -0.45179,-1.582694 -0.76273,-2.079323 -0.26728,-0.42689 -1.17619,-0.92424 -2.16364,-0.906882 -3.74633,0.06585 -5.75502,0.01123 -8.42258,0.04278 -0.60262,0.0071 -1.14625,0.04632 -1.76079,0.494212 -0.56085,0.408761 -0.94441,1.091984 -1.15437,1.753469 -0.61845,1.948465 -9.2587,32.093078 -13.04075,47.221391 -0.41394,1.65575 -0.24124,2.275953 -1.22606,2.268517 -0.91349,-0.0069 -0.84641,-1.205408 -1.05746,-2.100173 -3.39586,-14.396828 -8.67257,-31.29519 -13.07859,-46.856397 -0.24205,-0.854886 -0.42805,-1.83687 -0.97711,-2.244992 -1.05293,-0.782649 -1.62137,-0.576723 -2.93533,-0.586897 -2.52798,-0.01957 -5.22489,0.01157 -7.82934,0.01821 -1.90963,0.0049 -2.05943,0.48706 -2.58143,1.296136 -0.53494,0.829134 -0.39631,2.03165 -0.1198,2.957741 z M 87.316696,95.393821 c -2.512292,0.0012 -5.507325,0.121594 -9.014545,0.156882 -1.758815,0.0177 -2.08904,-0.96299 -3.112907,-2.209849 -4.362988,-5.980157 -9.280027,-12.985407 -10.922535,-15.144146 -2.158256,-2.836583 -4.381853,-5.810243 -6.228983,-8.418777 -1.014124,-1.432156 -2.310163,-2.837707 -2.256182,-4.609896 0.114894,-1.832221 0.629891,-2.428443 1.538851,-3.708617 5.959893,-8.39388 12.68207,-17.185245 17.551555,-23.57771 4.869484,-6.392464 9.365846,-12.246042 12.301162,-16.210424 1.006739,-1.24266 1.451103,-1.020498 2.408423,-0.559963 0.640878,0.661088 0.966048,0.630404 0.423654,1.894396 -5.233438,6.181125 -4.586601,6.056342 -10.246549,13.434856 -3.569998,4.653978 -13.708181,17.864337 -14.269597,19.493711 -0.488803,1.402737 0.608184,3.059094 1.424306,4.171435 1.418744,1.93369 18.797638,25.996255 21.887231,30.096275 0.529332,1.012659 1.775735,1.977177 1.215061,3.505592 -0.376203,0.728741 -1.25804,1.552279 -2.698945,1.686235 z M 27.710101,20.358677 c 2.703492,0.02569 5.626452,0.03565 9.133672,3.59e-4 1.758815,-0.0177 1.970575,0.785075 2.994442,2.031935 4.362988,5.980155 9.022153,12.646484 10.922535,15.144145 1.900382,2.497661 4.381853,5.810243 6.228983,8.418777 1.014124,1.432156 2.310163,2.837707 2.256182,4.609896 -0.114894,1.832221 -0.629891,2.428443 -1.538851,3.708617 -5.959893,8.39388 -11.567957,15.722682 -17.551555,23.57771 -3.755371,4.929901 -9.365846,12.246044 -12.301162,16.210426 -1.006739,1.24266 -1.451103,1.020498 -2.408423,0.559963 C 24.805046,93.959422 24.479876,93.990106 25.02227,92.726114 30.255708,86.544987 29.608871,86.66977 35.268819,79.291256 38.838817,74.637278 48.977,61.426919 49.538416,59.797545 50.027219,58.394808 48.930232,56.738451 48.11411,55.62611 46.695366,53.69242 29.379802,29.570496 26.290209,25.470477 c -0.529332,-1.012659 -1.839065,-1.917818 -1.278391,-3.446234 0.376203,-0.728741 1.257378,-1.53161 2.698283,-1.665566 z m 110.495469,0.05425 c -3.53532,-0.02623 -6.83062,0.07905 -10.72071,0.06445 -1.03805,-0.0039 -1.30588,0.404336 -1.76172,0.808594 -0.37857,0.335726 -0.58267,0.932588 -0.74609,1.320312 -2.06777,4.97202 -26.973533,66.001514 -28.419921,69.648438 -0.265346,0.972691 -0.05057,1.825206 0.476562,2.482421 0.400465,0.499289 1.054023,0.772003 1.761719,0.763672 3.34127,-0.03933 6.5596,-0.02015 9.49609,-0.0332 0.57699,-0.0026 1.04999,-0.142602 1.46094,-0.443359 0.48932,-0.358105 0.4502,-0.245358 1.0293,-1.5 0.48838,-1.058102 4.81748,-11.971675 6.8164,-17.128906 0.30342,-0.717307 0.43242,-1.137657 0.9043,-1.462891 0.38405,-0.264698 0.78842,-0.27693 1.37305,-0.263672 8.30489,-0.002 17.68424,0.1002 25.51562,0.0039 0.6172,-0.0076 1.19661,-0.0821 1.6543,0.236328 0.41664,0.289869 0.5845,0.983017 0.72656,1.337891 0.86375,2.157736 4.54238,12.876593 7.34766,18.195313 0.23867,0.452511 0.57201,0.690407 0.96875,0.863281 0.53977,0.235191 1.23978,0.173134 1.75781,0.166015 3.26985,-0.04494 5.86282,0.0019 8.6582,-0.03906 1.04671,-0.01531 1.44947,-0.549346 1.76368,-1.183594 0.54678,-1.10371 0.38608,-2.215827 -0.22071,-3.6875 -1.30694,-3.169796 -26.05409,-64.853914 -27.28711,-67.796875 -0.43118,-1.029118 -0.41882,-1.17105 -0.86914,-1.560547 -0.43706,-0.37802 -0.66518,-0.783443 -1.68554,-0.791015 z m -5.49805,18.099609 c 0.58133,-4.28e-4 0.91359,0.829007 1.11719,1.537109 3.32024,8.492218 3.69518,9.815169 7.94336,20.416016 0.38253,0.954572 0.52886,2.137029 -0.39454,2.332031 -4.85674,-0.03309 -8.96235,0.202809 -16.67968,0.01758 -1.72755,-0.026 -1.58881,-1.016159 -1.02735,-2.404296 0.67268,-1.678424 0.68241,-1.591209 1.87891,-4.552735 1.19651,-2.961526 2.38004,-5.852481 5.83008,-15.517578 0.44273,-1.247638 0.58184,-1.827572 1.33203,-1.828125 z" />
  </g>
  <metadata
     id="metadata32514">
    <rdf:RDF>
      <cc:Work
         rdf:about="">
        <cc:license
           rdf:resource="http://creativecommons.org/licenses/by-sa/4.0/" />
        <dc:description>'X' derived from Xorg/X11logo </dc:description>
        <dc:creator>
          <cc:Agent>
            <dc:title>XAWP developers - https://github.com/TheRealOne78/XAWP</dc:title>
          </cc:Agent>
        </dc:creator>
        <dc:rights>
          <cc:Agent>
            <dc:title>CC 4.0</dc:title>
          </cc:Agent>
        </dc:rights>
        <dc:source>Derived from Xorg logo</dc:source>
      </cc:Work>
      <cc:License
         rdf:about="http://creativecommons.org/licenses/by-sa/4.0/">
        <cc:permits
           rdf:resource="http://creativecommons.org/ns#Reproduction" />
        <cc:permits
           rdf:resource="http://creativecommons.org/ns#Distribution" />
        <cc:requires
           rdf:resource="http://creativecommons.org/ns#Notice" />
        <cc:requires
           rdf:resource="http://creativecommons.org/ns#Attribution" />
        <cc:permits
           rdf:resource="http://creativecommons.org/ns#DerivativeWorks" />
        <cc:requires
           rdf:resource="http://creativecommons.org/ns#ShareAlike" />
      </cc:License>
    </rdf:RDF>
  </metadata>
</svg>
